# xmcd
#
# Track frame offsets:
#	150
#	15016
#	29986
#	41408
#	55750
#	71784
#	85178
#	102812
#	113291
#	123129
#	142335
#
# Disc length: 2277 seconds
#
# Revision: 1
# Processed by: cddbd v1.5.1PL0 Copyright (c) Steve Scherf et al.
# Submitted via: audiograbber 1.83.01
#
DISCID=8908e30b
DTITLE=Shades of Blue - It's All Comin' Down
DYEAR=2001
DGENRE=Blues/Rock
TTITLE0=It's All Comin' Down
TTITLE1=Fine By Me
TTITLE2=Meant to Be
TTITLE3=Sweet Nothin'
TTITLE4=Water Meter Baby
TTITLE5=100 Proof Rock and Roll
TTITLE6=Old People in Love
TTITLE7=Swing
TTITLE8=Found Hound
TTITLE9=You Lead Me On
TTITLE10=Teach Me a Thing or Two
EXTD=
EXTT0=
EXTT1=
EXTT2=
EXTT3=
EXTT4=
EXTT5=
EXTT6=
EXTT7=
EXTT8=
EXTT9=
EXTT10=
PLAYORDER=
